# Blender 3.6.1
# www.blender.org
mtllib cube.mtl
o Cube
v 1.000000 1.000000 -1.000000
v 1.000000 -1.000000 -1.000000
v 1.685893 1.196205 1.252475
v 1.000000 -1.000000 1.000000
v -1.000000 0.419927 -1.000000
v -1.000000 -1.000000 -1.000000
v -1.000000 1.000000 1.000000
v -1.000000 -1.000000 1.000000
vn -0.0665 0.9956 -0.0665
vn -0.0000 -0.0000 1.0000
vn -1.0000 -0.0000 -0.0000
vn -0.0000 -1.0000 -0.0000
vn 1.0000 -0.0000 -0.0000
vn -0.0000 -0.0000 -1.0000
vn -0.2683 0.9252 -0.2683
vn -0.0869 -0.0869 0.9924
vn 0.9297 -0.2604 -0.2604
vt 0.625000 0.500000
vt 0.875000 0.750000
vt 0.625000 0.750000
vt 0.375000 0.750000
vt 0.625000 1.000000
vt 0.375000 1.000000
vt 0.375000 0.000000
vt 0.625000 0.250000
vt 0.375000 0.250000
vt 0.375000 0.500000
vt 0.125000 0.750000
vt 0.125000 0.500000
vt 0.875000 0.500000
vt 0.625000 0.000000
s 0
usemtl Material
f 1/1/1 7/2/1 3/3/1
f 4/4/2 7/5/2 8/6/2
f 8/7/3 5/8/3 6/9/3
f 2/10/4 8/11/4 6/12/4
f 1/1/5 4/4/5 2/10/5
f 5/8/6 2/10/6 6/9/6
f 1/1/7 5/13/7 7/2/7
f 4/4/8 3/3/8 7/5/8
f 8/7/3 7/14/3 5/8/3
f 2/10/4 4/4/4 8/11/4
f 1/1/9 3/3/9 4/4/9
f 5/8/6 1/1/6 2/10/6
