# Blender 3.6.1
# www.blender.org
mtllib something.mtl
o Cube
v 1.000000 1.000000 -1.000000
v 1.000000 -1.000000 -1.000000
v 1.000000 1.000000 1.000000
v 1.000000 -1.000000 1.000000
v -1.000000 1.000000 -1.000000
v -1.000000 -1.000000 -1.000000
v -1.000000 1.000000 1.000000
v -1.000000 -1.000000 1.000000
v -0.272853 0.999999 0.387560
v -0.272853 2.298507 0.387560
v -0.272853 0.999999 -0.511618
v -0.272853 2.298507 -0.511618
v 0.688104 0.999999 0.387560
v 0.688104 2.298507 0.387560
v 0.688104 0.999999 -0.511618
v 0.688104 2.298507 -0.511618
v 0.004178 2.298507 0.126277
v 0.004178 4.533768 0.126277
v 0.004178 2.298507 -0.312036
v 0.004178 4.533768 -0.312036
v 0.478911 2.298507 0.126277
v 0.478911 4.533768 0.126277
v 0.478911 2.298507 -0.312036
v 0.478911 4.533768 -0.312036
v 0.428739 3.829437 0.126277
v 0.428740 3.829437 4.968671
v 0.004178 3.829437 0.126277
v 0.004178 -0.027017 4.968671
v 0.428739 4.063598 0.126277
v 0.428740 4.063598 4.968671
v 0.004178 4.063598 0.126277
v 0.004178 4.063598 4.968671
v 0.004178 3.811168 -0.167544
v -3.533161 -0.080808 -0.167544
v 0.004178 3.961544 -0.167544
v -3.533161 3.961543 -0.167544
v 0.004178 3.811168 0.069338
v -3.533161 3.811168 0.069338
v 0.004178 3.961544 0.069338
v -3.533161 3.961543 0.069338
v 0.119835 3.857117 -0.312036
v 0.119835 1.675202 -5.400072
v 0.323392 3.857117 -0.312036
v 0.323392 3.857117 -5.400072
v 0.119835 4.085012 -0.312036
v 0.119835 4.085012 -5.400072
v 0.323392 4.085012 -0.312036
v 0.323392 4.085012 -5.400072
v 0.478911 3.830302 -0.010128
v 6.156906 -0.730791 -0.010128
v 0.478911 4.098517 -0.010128
v 6.156906 4.098517 -0.010128
v 0.478911 3.830302 -0.236803
v 6.156906 3.830302 -0.236804
v 0.478911 4.098517 -0.236803
v 6.156906 4.098517 -0.236804
v 0.135918 4.049326 -5.428112
vn -0.0000 1.0000 -0.0000
vn -0.0000 -0.0000 1.0000
vn -1.0000 -0.0000 -0.0000
vn -0.0000 -1.0000 -0.0000
vn 1.0000 -0.0000 -0.0000
vn -0.0000 -0.0000 -1.0000
vn 0.9902 -0.1090 -0.0868
vn 0.0667 -0.0606 0.9959
vn 0.9949 -0.0928 0.0398
vn -0.0398 -0.0496 -0.9980
vt 0.875000 0.500000
vt 0.625000 0.750000
vt 0.625000 0.500000
vt 0.375000 1.000000
vt 0.375000 0.750000
vt 0.625000 0.000000
vt 0.375000 0.250000
vt 0.375000 0.000000
vt 0.375000 0.500000
vt 0.125000 0.750000
vt 0.125000 0.500000
vt 0.625000 0.250000
vt 0.875000 0.750000
vt 0.625000 1.000000
s 0
usemtl Material
f 5/1/1 3/2/1 1/3/1
f 3/2/2 8/4/2 4/5/2
f 7/6/3 6/7/3 8/8/3
f 2/9/4 8/10/4 6/11/4
f 1/3/5 4/5/5 2/9/5
f 5/12/6 2/9/6 6/7/6
f 10/6/3 11/7/3 9/8/3
f 12/12/6 15/9/6 11/7/6
f 16/3/5 13/5/5 15/9/5
f 14/2/2 9/4/2 13/5/2
f 15/9/4 9/10/4 11/11/4
f 12/1/1 14/2/1 16/3/1
f 18/6/3 19/7/3 17/8/3
f 20/12/6 23/9/6 19/7/6
f 24/3/5 21/5/5 23/9/5
f 22/2/2 17/4/2 21/5/2
f 23/9/4 17/10/4 19/11/4
f 20/1/1 22/2/1 24/3/1
f 26/6/4 27/7/4 25/8/4
f 27/7/3 32/3/3 31/9/3
f 31/9/1 30/2/1 29/5/1
f 30/2/5 25/4/5 29/5/5
f 31/9/6 25/10/6 27/11/6
f 32/3/2 26/13/2 30/2/2
f 33/8/6 36/12/6 35/7/6
f 36/12/1 39/9/1 35/7/1
f 40/3/2 37/5/2 39/9/2
f 38/2/4 33/4/4 37/5/4
f 39/9/5 33/10/5 35/11/5
f 36/1/3 38/2/3 40/3/3
f 41/8/4 44/12/4 43/7/4
f 44/12/5 47/9/5 43/7/5
f 48/3/1 45/5/1 47/9/1
f 46/2/3 41/4/3 45/5/3
f 47/9/2 41/10/2 43/11/2
f 44/1/6 46/2/6 48/3/6
f 49/8/2 52/12/2 51/7/2
f 52/12/1 55/9/1 51/7/1
f 56/3/6 53/5/6 55/9/6
f 54/2/4 49/4/4 53/5/4
f 55/9/3 49/10/3 51/11/3
f 52/1/5 54/2/5 56/3/5
f 5/1/1 7/13/1 3/2/1
f 3/2/2 7/14/2 8/4/2
f 7/6/3 5/12/3 6/7/3
f 2/9/4 4/5/4 8/10/4
f 1/3/5 3/2/5 4/5/5
f 5/12/6 1/3/6 2/9/6
f 10/6/3 12/12/3 11/7/3
f 12/12/6 16/3/6 15/9/6
f 16/3/5 14/2/5 13/5/5
f 14/2/2 10/14/2 9/4/2
f 15/9/4 13/5/4 9/10/4
f 12/1/1 10/13/1 14/2/1
f 18/6/3 20/12/3 19/7/3
f 20/12/6 24/3/6 23/9/6
f 24/3/5 22/2/5 21/5/5
f 22/2/2 18/14/2 17/4/2
f 23/9/4 21/5/4 17/10/4
f 20/1/1 18/13/1 22/2/1
f 26/6/7 28/12/7 27/7/7
f 27/7/3 28/12/3 32/3/3
f 31/9/1 32/3/1 30/2/1
f 30/2/5 26/14/5 25/4/5
f 31/9/6 29/5/6 25/10/6
f 32/3/2 28/1/2 26/13/2
f 33/8/6 34/6/6 36/12/6
f 36/12/1 40/3/1 39/9/1
f 40/3/2 38/2/2 37/5/2
f 38/2/8 34/14/8 33/4/8
f 39/9/5 37/5/5 33/10/5
f 36/1/3 34/13/3 38/2/3
f 41/8/9 42/6/9 44/12/9
f 44/12/5 48/3/5 47/9/5
f 48/3/1 46/2/1 45/5/1
f 46/2/3 42/14/3 41/4/3
f 47/9/2 45/5/2 41/10/2
f 44/1/6 42/13/6 46/2/6
f 49/8/2 50/6/2 52/12/2
f 52/12/1 56/3/1 55/9/1
f 56/3/6 54/2/6 53/5/6
f 54/2/10 50/14/10 49/4/10
f 55/9/3 53/5/3 49/10/3
f 52/1/5 50/13/5 54/2/5
l 46 57
